PathFileType	4	(X/Y/Z)	 s11c0403.trc
DataRate	CameraRate	NumFrames	NumMarkers	Units	OrigDataRate	OrigDataStartFrame	OrigNumFrames
200	200	4	48	mm	200	501	2000
Frame#	Time	racr			lacr			c7			jug			rlel			rdr			llel			ldr			s2			lic			ric			lasi			rasi			rpsi			lpsi			rgt			lgt			rth1			rth2			rth3			rth4			rlfc			rmfc			rsh1			rsh2			rsh3			rsh4			rlmal			rcal			rtoe			rmt5			lth1			lth2			lth4			lth3			llfc			lmfc			llmal			lcal			lmt5			lsh1			lsh2			lsh3			lsh4			ltoe			SBIKE			LBIKE			RBIKE			
		X1	Y1	Z1	X2	Y2	Z2	X3	Y3	Z3	X4	Y4	Z4	X5	Y5	Z5	X6	Y6	Z6	X7	Y7	Z7	X8	Y8	Z8	X9	Y9	Z9	X10	Y10	Z10	X11	Y11	Z11	X12	Y12	Z12	X13	Y13	Z13	X14	Y14	Z14	X15	Y15	Z15	X16	Y16	Z16	X17	Y17	Z17	X18	Y18	Z18	X19	Y19	Z19	X20	Y20	Z20	X21	Y21	Z21	X22	Y22	Z22	X23	Y23	Z23	X24	Y24	Z24	X25	Y25	Z25	X26	Y26	Z26	X27	Y27	Z27	X28	Y28	Z28	X29	Y29	Z29	X30	Y30	Z30	X31	Y31	Z31	X32	Y32	Z32	X33	Y33	Z33	X34	Y34	Z34	X35	Y35	Z35	X36	Y36	Z36	X37	Y37	Z37	X38	Y38	Z38	X39	Y39	Z39	X40	Y40	Z40	X41	Y41	Z41	X42	Y42	Z42	X43	Y43	Z43	X44	Y44	Z44	X45	Y45	Z45	X46	Y46	Z46	X47	Y47	Z47	X48	Y48	Z48	
501	2.5050	659.762870	1410.211099	21.767758	716.924996	1449.413991	-301.921994	633.985350	1582.745386	-140.853109	634.550884	1395.920433	-159.156141	569.119094	1140.887794	95.750356	755.871691	979.160304	-32.370855	619.285016	1212.826006	-498.344223	787.799130	953.072882	-428.568293	70.999169	1412.838315	-241.542281	289.640543	1386.985821	-429.655870	270.253352	1365.777699	-30.450711	304.620094	1313.683308	-399.298546	291.202034	1293.839220	-69.320033	125.255303	1482.694799	-207.168072	125.906013	1473.616286	-279.809326	202.994802	1244.606506	-23.908907	153.697622	1265.032598	-449.247847	282.103688	1120.639163	-28.116099	346.370617	1059.828682	-41.812973	370.574479	977.267424	-61.046186	376.080709	1079.723625	-52.555476	425.078573	884.074529	-82.650121	414.012940	864.461405	-207.149140	380.800961	725.634085	-64.830495	378.960968	638.933952	-83.849556	337.136137	562.738890	-82.120352	401.214041	636.407311	-115.900609	291.805148	431.558833	-93.907636	229.160223	405.185591	-140.756979	516.423288	393.365261	-126.471824	446.420733	361.952510	-58.991857	199.895636	1119.960484	-465.451610	244.069257	1047.734225	-460.843285	279.724970	1056.902341	-456.764104	245.877148	958.031617	-454.943283	280.080265	814.558828	-431.237870	294.394078	805.279337	-304.007723	45.094090	447.955059	-421.820012	-21.018616	439.589699	-384.802036	121.477612	285.957232	-445.658517	210.834079	706.078725	-456.886263	188.052112	624.944941	-443.612409	126.248342	561.630121	-441.911799	215.084165	612.657187	-418.742438	212.281402	253.068538	-377.826379	-170.442268	972.123835	-174.508305	1.147997	83.034119	-460.835496	-15.471802	81.327977	-62.312109	
502	2.5100	660.720234	1408.641591	21.548024	717.370684	1448.755292	-302.096106	635.331092	1581.873049	-140.620599	635.455901	1394.824936	-159.330146	568.784719	1140.016021	95.819096	755.751430	979.109860	-32.263735	618.798151	1212.741160	-498.557653	787.599646	952.950620	-429.266756	72.627454	1412.346129	-240.400098	290.775015	1387.334548	-428.833678	272.012289	1364.257455	-29.691098	306.004958	1313.517989	-398.815428	293.013393	1292.287367	-68.564719	126.845741	1482.323581	-205.880099	127.539353	1473.420763	-278.476924	203.907540	1243.162594	-23.522570	155.417276	1265.628458	-448.711179	281.944717	1118.400815	-27.673813	345.593365	1056.923264	-41.660343	368.891699	974.199127	-60.994437	375.413062	1076.580865	-52.461546	422.562099	880.804628	-82.965572	410.725194	861.153771	-207.395322	379.114909	721.999930	-64.945710	378.752384	635.754075	-82.987148	336.706546	558.675718	-82.114238	400.275950	632.959378	-115.901826	292.242428	426.954097	-93.786906	229.728693	400.621962	-140.587847	516.926034	389.446414	-126.587516	447.132328	357.689763	-58.989798	204.100187	1120.688758	-464.554754	249.501743	1049.185915	-459.949770	284.969163	1058.888631	-455.646904	252.783424	959.506580	-454.575505	288.492861	815.888386	-430.791204	301.918816	806.723413	-303.427001	47.544606	453.187679	-421.840720	-18.811504	445.554801	-384.817942	121.372254	289.694590	-445.435196	218.130124	707.948874	-456.531759	193.822436	627.295934	-442.914252	131.004947	565.042853	-441.698879	220.266604	613.897131	-417.809596	211.520178	255.256280	-377.660957	-170.167893	972.715421	-173.247600	1.148894	83.113807	-460.786710	-15.464525	81.323462	-62.295343	
503	2.5150	661.663348	1407.141411	21.312236	717.726656	1448.138229	-302.371840	636.626514	1580.978165	-140.181428	636.315226	1393.967921	-159.411261	568.432835	1139.217976	95.810518	755.688489	979.058976	-32.113929	618.332661	1212.721900	-498.823286	787.427834	952.843869	-430.002695	74.162668	1411.554401	-239.201612	291.916173	1387.406817	-428.028656	273.755288	1362.524555	-28.983158	307.454082	1313.043457	-398.237993	294.848432	1290.523214	-67.844052	128.540418	1481.507244	-205.483524	128.859971	1472.771142	-276.834011	204.920445	1241.446958	-23.206792	157.236967	1265.921583	-448.144133	281.869650	1115.914337	-27.264646	344.879398	1053.911795	-41.475272	367.372564	970.963820	-60.948621	374.913442	1073.221626	-52.324618	420.399435	877.205880	-83.546763	408.895199	858.240340	-209.646319	377.687537	718.102038	-65.040402	377.853802	631.829203	-82.951264	336.382535	554.500476	-82.129137	399.247448	629.301705	-116.056104	292.719156	422.383414	-93.778720	230.159727	395.866622	-140.571963	517.491318	385.267762	-126.688683	447.688093	353.406188	-58.973174	208.418579	1121.179509	-463.694374	255.026542	1050.440860	-459.130946	290.280443	1060.757158	-454.492865	259.765912	960.767069	-454.322300	296.993651	817.097378	-430.388753	309.702320	808.037904	-303.128591	50.315006	458.189426	-421.786877	-16.589427	451.373831	-384.896725	121.406309	293.490939	-445.236581	225.480135	709.837741	-456.141941	199.779281	629.571923	-442.615745	135.892217	568.408154	-441.485835	225.727490	615.981727	-417.066990	210.986130	257.652622	-377.531325	-170.083434	972.397000	-173.987353	1.149397	83.072287	-460.830627	-15.465695	81.322858	-62.306017	
504	2.5200	662.562981	1405.737205	21.208893	718.051398	1447.666274	-302.750465	637.776558	1580.186988	-140.026506	637.277142	1392.993569	-159.545040	568.295460	1138.211631	95.647048	755.647700	979.014701	-31.954774	617.862098	1212.614047	-499.103213	787.189504	952.700638	-430.684111	75.757415	1410.267505	-238.063477	293.071155	1387.248279	-427.274355	275.495813	1360.555653	-28.260592	308.870054	1312.399719	-397.675382	296.758983	1288.578428	-67.147584	130.187955	1480.250123	-204.842266	130.256514	1471.849605	-275.553716	206.045991	1239.507365	-22.795929	159.155119	1265.876757	-447.593245	281.918378	1113.229398	-26.794527	344.324578	1050.601594	-41.251513	365.976642	967.501454	-60.771773	374.448186	1069.739308	-52.237993	418.272039	873.298501	-83.703708	404.976993	854.281830	-207.887584	376.207965	714.037946	-64.994578	376.932914	627.791756	-82.948033	336.032172	550.186448	-82.066516	398.226235	625.449241	-116.085901	293.078142	417.803137	-93.699388	230.473371	391.081045	-140.549071	517.833265	381.091282	-126.576644	448.091162	349.066939	-58.923297	212.853624	1121.461000	-462.883792	260.638911	1051.359648	-458.330064	295.710357	1062.386017	-453.282357	266.850706	961.890705	-454.167093	305.593604	818.226231	-429.976660	317.406619	809.111337	-302.720514	52.915573	463.132227	-422.028412	-14.216365	457.432685	-385.016880	121.583441	297.474596	-444.966384	232.841542	711.614458	-455.819650	205.661071	631.949328	-442.075973	140.858567	571.919308	-441.600487	231.231280	617.904101	-416.466003	210.528629	260.271751	-377.439256	-170.368140	972.610110	-173.442404	1.165257	83.071097	-460.842935	-15.459296	81.321306	-62.296111	
